<svg id="Layer_1" data-name="Layer 1" xmlns="http://www.w3.org/2000/svg" xmlns:xlink="http://www.w3.org/1999/xlink" viewBox="0 0 397.48 112.11"><defs><style>.cls-1{fill:url(#linear-gradient);}.cls-2{fill:url(#linear-gradient-2);}.cls-3{fill:url(#linear-gradient-3);}.cls-4{fill:url(#linear-gradient-4);}.cls-5{fill:url(#linear-gradient-5);}</style><linearGradient id="linear-gradient" x1="105.65" y1="174.58" x2="171.43" y2="315.63" gradientUnits="userSpaceOnUse"><stop offset="0" stop-color="#ebff7d"/><stop offset="1" stop-color="#24c01c"/></linearGradient><linearGradient id="linear-gradient-2" x1="160.26" y1="182.56" x2="204.34" y2="277.09" xlink:href="#linear-gradient"/><linearGradient id="linear-gradient-3" x1="238.14" y1="168.12" x2="291.47" y2="282.49" xlink:href="#linear-gradient"/><linearGradient id="linear-gradient-4" x1="374.24" y1="179.24" x2="422.58" y2="282.91" xlink:href="#linear-gradient"/><linearGradient id="linear-gradient-5" x1="394.38" y1="201.18" x2="403.12" y2="219.92" xlink:href="#linear-gradient"/></defs><path class="cls-1" d="M102.56,285.48,53,174.18h8.91l47.38,106.37h-4.93l47.54-106.37h8.43l-49.61,111.3Z" transform="translate(-52.95 -174)"/><path class="cls-2" d="M178.24,285.48V174.18h8.11v111.3Z" transform="translate(-52.95 -174)"/><path class="cls-3" d="M225.15,285.48V174.18h44q17.65,0,31,7.15A52,52,0,0,1,321,201.05q7.38,12.55,7.39,28.78T321,258.61a52.08,52.08,0,0,1-20.75,19.71q-13.36,7.15-31,7.16Zm8.11-7.32h35.29q15.75,0,27.35-6.2a44.67,44.67,0,0,0,18-17.09,52.49,52.49,0,0,0,0-50.09,44.74,44.74,0,0,0-18-17.09q-11.61-6.19-27.35-6.2H233.26Z" transform="translate(-52.95 -174)"/><path class="cls-4" d="M401.77,286.11q-16.71,0-29.5-7.19A52.3,52.3,0,0,1,352.17,259a57.16,57.16,0,0,1-7.3-29q0-16.5,6.88-29.09a51.09,51.09,0,0,1,18.93-19.78A51.88,51.88,0,0,1,397.76,174a52.52,52.52,0,0,1,27,7,49.8,49.8,0,0,1,18.82,19.57q6.87,12.58,6.88,29.08a9.83,9.83,0,0,1-.11,1.38c-.07.49.11,2.27-.1,1.58-37,14.13-62.84,14.13-97.52,0-.46-.34-.46-9.64-.46-9.64,6.2,5.17,59.95,20.67,88.89,1l-.86,4.38a45.87,45.87,0,0,0-5.39-23.16,42.14,42.14,0,0,0-15.12-16.08,44.37,44.37,0,0,0-43.9,0,41,41,0,0,0-15.12,16.08,48.66,48.66,0,0,0-5.5,23.38v1.9a47.23,47.23,0,0,0,6,24,42.41,42.41,0,0,0,16.6,16.29A49.19,49.19,0,0,0,402,276.59a51.4,51.4,0,0,0,19.78-3.8,38.88,38.88,0,0,0,15.54-11.64l6.14,7a45.39,45.39,0,0,1-18.09,13.43A60.44,60.44,0,0,1,401.77,286.11Z" transform="translate(-52.95 -174)"/><path class="cls-5" d="M398.75,200.21a10.34,10.34,0,1,0,10.34,10.34A10.34,10.34,0,0,0,398.75,200.21Zm3.1,9.3a3.1,3.1,0,1,1,3.1-3.1A3.1,3.1,0,0,1,401.85,209.51Z" transform="translate(-52.95 -174)"/></svg>