<svg id="Layer_1" data-name="Layer 1" xmlns="http://www.w3.org/2000/svg" viewBox="0 0 340 248.45"><defs><style>.cls-1{fill:none;stroke:#000;stroke-miterlimit:10;stroke-width:3px;}</style></defs><polygon class="cls-1" points="338.5 246.95 1.5 246.95 1.5 167.95 1.5 32.95 338.5 32.95 338.5 246.95"/><path class="cls-1" d="M82.5,265c44-23.5,122-1.5,168.5-3.5s103.5-22,133.5-33,35,0,35,0" transform="translate(-81 -72.55)"/><circle class="cls-1" cx="282.5" cy="84.95" r="18"/><path class="cls-1" d="M212.45,196.72A5.68,5.68,0,0,0,207,191.5a5.13,5.13,0,0,0-2.45.63A5.38,5.38,0,0,0,200,189.5a5.77,5.77,0,0,0-5.5,6c0,.08,0,.16,0,.23a5.41,5.41,0,0,0-1.51-.23,6,6,0,0,0,0,12,5,5,0,0,0,1.55-.25A5.69,5.69,0,0,0,200,212.5a5.32,5.32,0,0,0,4.16-2.08,4.6,4.6,0,0,0,.84.08,5.36,5.36,0,0,0,4.32-2.29,4.94,4.94,0,0,0,1.68.29,5.77,5.77,0,0,0,5.5-6A5.93,5.93,0,0,0,212.45,196.72Z" transform="translate(-81 -72.55)"/><path class="cls-1" d="M294.93,163.42a10.12,10.12,0,0,0-4.83,1.25,10.61,10.61,0,0,0-9-5.2,10.1,10.1,0,0,0-4.56,1.11,10.32,10.32,0,0,0-7.28-3.08c-5.11,0-9.38,3.85-10.54,9a12,12,0,0,0-6.24,10.71c0,6.54,4.86,11.84,10.86,11.84a10.1,10.1,0,0,0,5.64-1.74A10.93,10.93,0,0,0,279.14,195c5.21,0,9.55-4,10.61-9.33a10.16,10.16,0,0,0,5.18,1.44c6,0,10.86-5.31,10.86-11.85S300.93,163.42,294.93,163.42Z" transform="translate(-81 -72.55)"/><path class="cls-1" d="M169.32,140.53a8.62,8.62,0,0,0-8.09-6.43,8.17,8.17,0,0,0-6,2.73A8.53,8.53,0,0,0,147.3,131a8.75,8.75,0,0,0-8.39,7.79c-.3,0-.6,0-.9,0-4.7,0-8.51,4.16-8.51,9.28a9.36,9.36,0,0,0,4.89,8.4,8.7,8.7,0,0,0,8.26,7.08,8.18,8.18,0,0,0,6.2-2.93A8.15,8.15,0,0,0,155,163.5a8.56,8.56,0,0,0,8-6,8,8,0,0,0,4.43,1.37c4.7,0,8.51-4.16,8.51-9.29A9.13,9.13,0,0,0,169.32,140.53Z" transform="translate(-81 -72.55)"/><line class="cls-1" x1="323.5" y1="46.95" x2="323.5" y2="0.66"/><line class="cls-1" x1="323.5" y1="0.95" x2="311.5" y2="16.95"/><line class="cls-1" x1="323.5" y1="0.95" x2="336.5" y2="16.95"/></svg>